# xmcd CD database file generated by OrangeCD 5.2
#
# Track frame offsets:
#	150
#	28722
#	47485
#	72507
#	97570
#	115087
#	135768
#	164521
#	184831
#	202509
#	227294
#	248164
#	286037
#
# Disc length: 4109 seconds
#
# Revision: 0
# Processed by: cddbd v1.5.1PL0 Copyright (c) Steve Scherf et al.
# Submitted via: OrangeCD 5.2
#
DISCID=96100b0d
DTITLE=Various Artist - Midnight Blues
DYEAR=2005
DGENRE=Blues
TTITLE0=OTIS RUSH - Hold That Train
TTITLE1=DAVE HOLE - Albatros
TTITLE2=JOHN CAMPBEL - One believer
TTITLE3=SHERMAN ROBERTSON - Our Good Thing Is Through
TTITLE4=KING B and B.B.B. - I Loved Another Woman
TTITLE5=BLUES COUSINS - I'll Be Waiting
TTITLE6=FRANK GAMBALLE - Passages
TTITLE7=RORY GALLAHER - If I Had A Reason
TTITLE8=JOHNNY WINTER - Kiss Tomorrow Goodbye
TTITLE9=RON LEVY'S WILD KINGDOM - Prayin' The Blues (part 2)
TTITLE10=CAREY BELL - Hard Working Woman
TTITLE11=ROBIN FORD - Blue and Lonesome
TTITLE12=ERIC JOHNSON - Winter Came
EXTD=
EXTT0=
EXTT1=
EXTT2=
EXTT3=
EXTT4=
EXTT5=
EXTT6=
EXTT7=
EXTT8=
EXTT9=
EXTT10=
EXTT11=
EXTT12=
PLAYORDER=
